:FULLY-SPECIFIED
:FORCE-ALL-JOINTS-BE-3DOF
:DEGREES
917
root 2.68403 15.9552 32.3249 3.4003 15.7255 2.24519
lfemur -17.9913 23.144 -9.39094
ltibia 39.5529 -0 0
lfoot -21.0003 -0.328144 0.857044
ltoes -2.76173 0 0
rfemur -22.9267 -13.8026 -4.53673
rtibia 73.3923 -0 0
rfoot -1.86667 -19.0473 -1.33651
rtoes 23.0033 -0 0
lowerback 0.848478 -1.87026 -2.29004
upperback -0.614057 -2.54951 -3.6311
thorax -1.12185 -1.27966 -2.38642
lowerneck -7.10371 -5.2477 -0.958534
upperneck 3.20019 -7.16235 4.88202
head 2.54322 -3.447 1.38401
lclavicle 4.92332e-15 2.49162e-14 1.14878e-30
lhumerus -56.9512 -41.2295 115.981
lradius 60.3405 -0 0
lwrist 14.8133 0 0
lhand 36.3652 20.7165 -0.39749
lfingers 7.12502 -0 0
lthumb 59.472 36.1548 -0.161568
rclavicle 4.92332e-15 2.49162e-14 1.14878e-30
rhumerus -23.5161 11.8808 -72.4627
rradius 100.694 -0 0
rwrist -11.8209 0 0
rhand 3.85272 -12.9896 4.13009
rfingers 7.12502 -0 0
rthumb 29.2053 -39.114 4.28672
918
root 2.5956 15.9166 32.36 3.71555 15.1393 2.3786
lfemur -17.2155 22.7401 -8.7502
ltibia 38.5255 -0 0
lfoot -21.4373 -0.480558 0.912658
ltoes -3.88211 0 0
rfemur -22.7631 -13.9056 -4.79396
rtibia 72.7677 -0 0
rfoot -2.50018 -18.5866 -1.42644
rtoes 21.2809 -0 0
lowerback 0.617776 -1.83092 -2.19041
upperback -0.692626 -2.49128 -3.75929
thorax -1.07899 -1.25206 -2.58223
lowerneck -7.10815 -5.10084 -0.852573
upperneck 3.10119 -6.96911 4.85744
head 2.50345 -3.35276 1.36652
lclavicle 4.22001e-15 2.61625e-14 1.17836e-30
lhumerus -57.3435 -41.4533 116.344
lradius 60.2499 -0 0
lwrist 15.0484 0 0
lhand 36.8024 21.0005 -0.430199
lfingers 7.12502 -0 0
lthumb 59.8643 36.161 -0.171336
rclavicle 4.22001e-15 2.61625e-14 1.17836e-30
rhumerus -21.6158 11.2913 -70.3102
rradius 99.0767 -0 0
rwrist -12.0276 0 0
rhand 2.75023 -13.9247 4.45079
rfingers 7.12502 -0 0
rthumb 28.1456 -40.1159 4.6232
919
root 2.5065 15.8777 32.3941 4.02381 14.5371 2.51005
lfemur -16.4214 22.3023 -8.10656
ltibia 37.4634 -0 0
lfoot -21.8751 -0.657824 0.965032
ltoes -5.01593 0 0
rfemur -22.6232 -14.0037 -5.04878
rtibia 72.1146 -0 0
rfoot -3.14532 -18.0969 -1.51126
rtoes 19.4878 -0 0
lowerback 0.389483 -1.78983 -2.0896
upperback -0.769993 -2.43131 -3.8894
thorax -1.03613 -1.22348 -2.78071
lowerneck -7.11194 -4.94814 -0.740941
upperneck 3.00299 -6.76859 4.83041
head 2.46345 -3.25484 1.34766
lclavicle 3.50757e-15 2.74123e-14 1.19717e-30
lhumerus -57.7273 -41.6718 116.688
lradius 60.1527 -0 0
lwrist 15.2966 0 0
lhand 37.2303 21.2805 -0.462466
lfingers 7.12502 -0 0
lthumb 60.2476 36.1637 -0.180448
rclavicle 3.50757e-15 2.74123e-14 1.19717e-30
rhumerus -19.712 10.5994 -68.1081
rradius 97.3738 -0 0
rwrist -12.2307 0 0
rhand 1.59551 -14.9077 4.76012
rfingers 7.12502 -0 0
rthumb 27.0349 -41.1705 4.94831
920
root 2.41716 15.8387 32.4271 4.32411 13.9199 2.63929
lfemur -15.611 21.8304 -7.46236
ltibia 36.368 -0 0
lfoot -22.3126 -0.86042 1.01367
ltoes -6.16081 0 0
rfemur -22.5084 -14.0967 -5.30032
rtibia 71.4335 -0 0
rfoot -3.8009 -17.5784 -1.59014
rtoes 17.6255 -0 0
lowerback 0.164277 -1.74704 -1.98783
upperback -0.845917 -2.36966 -4.02117
thorax -0.993387 -1.19393 -2.98145
lowerneck -7.11502 -4.78975 -0.623697
upperneck 2.90588 -6.56101 4.80089
head 2.4233 -3.15334 1.3274
lclavicle 2.78744e-15 2.86626e-14 1.20503e-30
lhumerus -58.1007 -41.8845 117.01
lradius 60.049 -0 0
lwrist 15.5579 0 0
lhand 37.6475 21.5558 -0.493987
lfingers 7.12502 -0 0
lthumb 60.6205 36.1631 -0.188818
rclavicle 2.78744e-15 2.86626e-14 1.20503e-30
rhumerus -17.8146 9.80228 -65.8641
rradius 95.5863 -0 0
rwrist -12.4294 0 0
rhand 0.389414 -15.9379 5.05492
rfingers 7.12502 -0 0
rthumb 25.8737 -42.2771 5.25874
921
root 2.32796 15.7999 32.4591 4.6155 13.2885 2.76608
lfemur -14.7864 21.3241 -6.81991
ltibia 35.2406 -0 0
lfoot -22.7487 -1.08882 1.05806
ltoes -7.3144 0 0
rfemur -22.42 -14.1845 -5.54773
rtibia 70.725 -0 0
rfoot -4.46569 -17.0314 -1.66225
rtoes 15.6961 -0 0
lowerback -0.0571618 -1.7026 -1.88531
upperback -0.920155 -2.30641 -4.15434
thorax -0.950876 -1.16347 -3.18404
lowerneck -7.11731 -4.62584 -0.500901
upperneck 2.8101 -6.34661 4.76886
head 2.38311 -3.04836 1.30575
lclavicle 2.06109e-15 2.99103e-14 1.20191e-30
lhumerus -58.4621 -42.091 117.308
lradius 59.9388 -0 0
lwrist 15.832 0 0
lhand 38.0525 21.8254 -0.524432
lfingers 7.12502 -0 0
lthumb 60.9817 36.1588 -0.196363
rclavicle 2.06109e-15 2.99103e-14 1.20191e-30
rhumerus -15.9332 8.89776 -63.5854
rradius 93.7153 -0 0
rwrist -12.6231 0 0
rhand -0.867102 -17.0146 5.332
rfingers 7.12502 -0 0
rthumb 24.6632 -43.4351 5.55111
922
root 2.23932 15.7614 32.4899 4.89703 12.644 2.89023
lfemur -13.9491 20.7833 -6.1815
ltibia 34.0824 -0 0
lfoot -23.1824 -1.34347 1.09772
ltoes -8.47434 0 0
rfemur -22.3595 -14.2667 -5.79016
rtibia 69.9896 -0 0
rfoot -5.13846 -16.456 -1.72678
rtoes 13.7011 -0 0
lowerback -0.274156 -1.65658 -1.78224
upperback -0.992467 -2.24163 -4.28866
thorax -0.908704 -1.13213 -3.3881
lowerneck -7.11877 -4.45657 -0.372611
upperneck 2.71593 -6.12561 4.7343
head 2.34294 -2.94001 1.28269
lclavicle 1.32995e-15 3.11524e-14 1.1879e-30
lhumerus -58.8097 -42.2908 117.58
lradius 59.822 -0 0
lwrist 16.119 0 0
lhand 38.4439 22.0886 -0.553451
lfingers 7.12502 -0 0
lthumb 61.3299 36.1508 -0.202997
rclavicle 1.32995e-15 3.11524e-14 1.1879e-30
rhumerus -14.0777 7.88474 -61.2789
rradius 91.7617 -0 0
rwrist -12.8112 0 0
rhand -2.17294 -18.1368 5.5881
rfingers 7.12502 -0 0
rthumb 23.4041 -44.6436 5.822
923
root 2.15163 15.7233 32.5195 5.16779 11.9873 3.0116
lfemur -13.1012 20.2077 -5.54939
ltibia 32.895 -0 0
lfoot -23.6125 -1.62485 1.13215
ltoes -9.63827 0 0
rfemur -22.3281 -14.3431 -6.02676
rtibia 69.2279 -0 0
rfoot -5.81795 -15.8525 -1.78294
rtoes 11.6423 -0 0
lowerback -0.486026 -1.60902 -1.67882
upperback -1.06261 -2.17539 -4.42386
thorax -0.866984 -1.09996 -3.59321
lowerneck -7.11931 -4.2821 -0.238886
upperneck 2.62363 -5.89823 4.69719
head 2.3029 -2.8284 1.25822
lclavicle 5.9549e-16 3.23858e-14 1.16325e-30
lhumerus -59.1414 -42.4836 117.824
lradius 59.6987 -0 0
lwrist 16.4186 0 0
lhand 38.8203 22.3445 -0.580671
lfingers 7.12502 -0 0
lthumb 61.6638 36.139 -0.208637
rclavicle 5.9549e-16 3.23858e-14 1.16325e-30
rhumerus -12.2575 6.76293 -58.9508
rradius 89.7264 -0 0
rwrist -12.9929 0 0
rhand -3.52685 -19.3035 5.81997
rfingers 7.12502 -0 0
rthumb 22.0979 -45.9016 6.06794
924
root 2.06531 15.6859 32.5479 5.42689 11.3194 3.13009
lfemur -12.2442 19.5975 -4.9258
ltibia 31.6796 -0 0
lfoot -24.038 -1.9334 1.16087
ltoes -10.8038 0 0
rfemur -22.3274 -14.4135 -6.25668
rtibia 68.4404 -0 0
rfoot -6.50287 -15.2211 -1.82996
rtoes 9.52164 -0 0
lowerback -0.692097 -1.56002 -1.57527
upperback -1.13034 -2.10776 -4.55969
thorax -0.825825 -1.06699 -3.79899
lowerneck -7.11888 -4.10259 -0.0997818
upperneck 2.53347 -5.66471 4.65753
head 2.26307 -2.71363 1.23233
lclavicle -1.40838e-16 3.36074e-14 1.12834e-30
lhumerus -59.4556 -42.6689 118.038
lradius 59.5689 -0 0
lwrist 16.7307 0 0
lhand 39.1802 22.5923 -0.605704
lfingers 7.12502 -0 0
lthumb 61.9819 36.1232 -0.213202
rclavicle -1.40838e-16 3.36074e-14 1.12834e-30
rhumerus -10.4818 5.53295 -56.6069
rradius 87.6105 -0 0
rwrist -13.1676 0 0
rhand -4.92744 -20.5136 6.0243
rfingers 7.12502 -0 0
rthumb 20.7457 -47.2079 6.28543
925
root 1.98075 15.6493 32.575 5.67344 10.6413 3.24561
lfemur -11.3798 18.9526 -4.31288
ltibia 30.4375 -0 0
lfoot -24.4577 -2.26955 1.1834
ltoes -11.9687 0 0
rfemur -22.3587 -14.4778 -6.47907
rtibia 67.6276 -0 0
rfoot -7.19192 -14.5622 -1.86709
rtoes 7.34076 -0 0
lowerback -0.891692 -1.50963 -1.47179
upperback -1.1954 -2.03881 -4.69588
thorax -0.785335 -1.03327 -4.00502
lowerneck -7.11741 -3.9182 0.0446441
upperneck 2.44569 -5.42526 4.61529
head 2.22353 -2.5958 1.20503
lclavicle -8.77581e-16 3.48143e-14 1.0837e-30
lhumerus -59.7502 -42.8465 118.219
lradius 59.4324 -0 0
lwrist 17.0553 0 0
lhand 39.5222 22.8312 -0.628143
lfingers 7.12502 -0 0
lthumb 62.2831 36.1033 -0.216614
rclavicle -8.77581e-16 3.48143e-14 1.0837e-30
rhumerus -8.75938 4.19624 -54.2518
rradius 85.415 -0 0
rwrist -13.3347 0 0
rhand -6.37314 -21.7655 6.19782
rfingers 7.12502 -0 0
rthumb 19.3493 -48.561 6.471
926
root 1.89836 15.6136 32.6007 5.90656 9.95403 3.35815
lfemur -10.5094 18.2733 -3.71275
ltibia 29.17 -0 0
lfoot -24.8704 -2.63376 1.19928
ltoes -13.1304 0 0
rfemur -22.4234 -14.5357 -6.69311
rtibia 66.79 -0 0
rfoot -7.88376 -13.876 -1.89361
rtoes 5.10147 -0 0
lowerback -1.08413 -1.45794 -1.36856
upperback -1.25757 -1.96859 -4.83218
thorax -0.745624 -0.998843 -4.21091
lowerneck -7.11483 -3.7291 0.194337
upperneck 2.36057 -5.18011 4.57048
head 2.18438 -2.47502 1.17629
lclavicle -1.61328e-15 3.60034e-14 1.03001e-30
lhumerus -60.0235 -43.0158 118.365
lradius 59.2894 -0 0
lwrist 17.3923 0 0
lhand 39.845 23.0605 -0.647567
lfingers 7.12502 -0 0
lthumb 62.5659 36.0791 -0.218796
rclavicle -1.61328e-15 3.60034e-14 1.03001e-30
rhumerus -7.09875 2.75505 -51.8894
rradius 83.1407 -0 0
rwrist -13.4935 0 0
rhand -7.8622 -23.0577 6.33727
rfingers 7.12502 -0 0
rthumb 17.9102 -49.9594 6.62115
927
root 1.81854 15.5792 32.625 6.1254 9.2585 3.4677
lfemur -9.63462 17.5597 -3.12744
ltibia 27.8786 -0 0
lfoot -25.2751 -3.02645 1.20807
ltoes -14.2867 0 0
rfemur -22.5228 -14.5869 -6.89795
rtibia 65.9283 -0 0
rfoot -8.57704 -13.1627 -1.90884
rtoes 2.80553 -0 0
lowerback -1.26875 -1.40502 -1.2658
upperback -1.31658 -1.89718 -4.96831
thorax -0.706798 -0.963759 -4.41626
lowerneck -7.11108 -3.53545 0.349241
upperneck 2.27836 -4.92949 4.52308
head 2.1457 -2.3514 1.14612
lclavicle -2.34649e-15 3.71717e-14 9.68059e-31
lhumerus -60.2734 -43.1765 118.474
lradius 59.1399 -0 0
lwrist 17.7414 0 0
lhand 40.147 23.2791 -0.663545
lfingers 7.12502 -0 0
lthumb 62.829 36.0507 -0.219676
rclavicle -2.34649e-15 3.71717e-14 9.68059e-31
rhumerus -5.50789 1.2124 -49.5225
rradius 80.7886 -0 0
rwrist -13.6433 0 0
rhand -9.3927 -24.3883 6.43945
rfingers 7.12502 -0 0
rthumb 16.4306 -51.4013 6.73246
928
root 1.7417 15.5461 32.6479 6.3291 8.55572 3.57432
lfemur -8.75666 16.8122 -2.55895
ltibia 26.5645 -0 0
lfoot -25.6706 -3.44806 1.20936
ltoes -15.4353 0 0
rfemur -22.6584 -14.6312 -7.09279
rtibia 65.0429 -0 0
rfoot -9.27037 -12.4229 -1.91211
rtoes 0.454728 -0 0
lowerback -1.44486 -1.35095 -1.16369
upperback -1.3722 -1.82463 -5.10401
thorax -0.668964 -0.928064 -4.62068
lowerneck -7.10609 -3.33741 0.509302
upperneck 2.19932 -4.67361 4.47311
head 2.10758 -2.22503 1.11452
lclavicle -3.07576e-15 3.8316e-14 8.98795e-31
lhumerus -60.498 -43.3281 118.544
lradius 58.9837 -0 0
lwrist 18.1026 0 0
lhand 40.4269 23.4865 -0.675636
lfingers 7.12502 -0 0
lthumb 63.0712 36.0178 -0.219187
rclavicle -3.07576e-15 3.8316e-14 8.98795e-31
rhumerus -3.99444 -0.427967 -47.1531
rradius 78.3597 -0 0
rwrist -13.7835 0 0
rhand -10.9625 -25.7553 6.50121
rfingers 7.12502 -0 0
rthumb 14.9126 -52.8845 6.80154
